pedal_clip_forces_x_-0.1_y_-0.05.mot
version=1
nRows=105
nColumns=4
inDegrees=yes
endheader
time	PedalClip_calcn_r_Fx	PedalClip_calcn_r_Fy	PedalClip_calcn_r_Fz
0	8.07157656134342	11.1706683333434	0
0.00111369	7.86130240643972	11.5313216817605	0
0.00550713	7.65145114356412	11.8878341830064	0
0.00990056	7.44202079362472	12.2402097758427	0
0.014294	7.23300925936464	12.5884526296035	0
0.01756935	7.02441451145549	12.9325671674906	0
0.0215395	6.81623459134635	13.272558092875	0
0.02448431	6.60846761435623	13.6084324897808	0
0.02807759	6.40111177304327	13.9402060249584	0
0.03071043	6.19416534088293	14.2678966725244	0
0.03393954	5.98762671931259	14.5915220978366	0
0.0363916	5.78149456247069	14.9110981423959	0
0.03846821	5.57576759344504	15.2266405007047	0
0.04106008	5.37044447557595	15.5381652541121	0
0.04262836	5.16552414441294	15.8456888650979	0
0.04497032	4.96100594744859	16.149228171454	0
0.04627774	4.75688935366908	16.4488003805198	0
0.04809284	4.55317408749449	16.7444230636263	0
0.04942111	4.34985973371203	17.0361141508867	0
0.05137723	4.14694580810188	17.3238919264483	0
0.05252362	3.94443173841207	17.6077750242578	0
0.05367	3.74231711315358	17.8877824243106	0
0.05444906	3.54060161113009	18.1639334492073	0
0.05532493	3.33928495825858	18.436247760637	0
0.05723198	3.13836691366062	18.704745355084	0
0.05913904	2.93784727574085	18.9694465575979	0
0.06026132	2.73772590445928	19.2303720117863	0
0.06138361	2.53800279227445	19.4875420868696	0
0.06244198	2.33867796327182	19.740975079092	0
0.06339058	2.13975133427879	19.9906888384057	0
0.06457059	1.94122271431609	20.2367013065635	0
0.06546334	1.74309185710695	20.4790304729619	0
0.06656054	1.54535849435946	20.7176943026852	0
0.06754073	1.34802229354586	20.9527106214219	0
0.06885973	1.15108285961582	21.1840969336316	0
0.06963171	0.954539462880997	21.4118701372959	0
0.0704037	0.758391197783127	21.6360455886685	0
0.07091233	0.562636817127179	21.8566348419942	0
0.07161784	0.367274615940889	22.0736458724482	0
0.07244085	0.172302565677029	22.287081871395	0
0.07326385	-0.0222817607545019	22.4969379873872	0
0.07350316	-0.216481618662874	22.7031951558832	0
0.07436722	-0.410301385507327	22.9058151473404	0
0.07515851	-0.603747282962823	23.1047303292444	0
0.07594979	-0.796827498910388	23.2998277741559	0
0.07636238	-0.989552559309582	23.4909255527377	0
0.07727519	-1.18193568348409	23.6777335435721	0
0.07794138	-1.37399202201039	23.8598105545702	0
0.07860758	-1.56573555838723	24.0365458456523	0
0.07897064	-1.75717275727662	24.2072551847029	0
0.07942785	-1.94870498926076	24.3676767599465	0
0.08026255	-2.13999989621891	24.5242469706831	0
0.08109726	-2.33104792827017	24.67736688481	0
0.08149421	-2.52183066516317	24.827633519832	0
0.08201103	-2.71232794133747	24.9756835487989	0
0.08266298	-2.90252896679104	25.1219870432549	0
0.08331492	-3.09242275327158	25.2667160407399	0
0.08361254	-3.28198591263576	25.4097634388945	0
0.08402638	-3.47118106499917	25.5511831602545	0
0.08474123	-3.65995872902228	25.6910757022512	0
0.08545607	-3.84826059017786	25.8294980907291	0
0.08578815	-4.03603343258086	25.9665497403742	0
0.08620771	-4.2232706593259	26.1023373805641	0
0.08683625	-4.40999432479076	26.2369494144297	0
0.08746479	-4.59622392991634	26.370474037592	0
0.08776882	-4.7819450452087	26.5030167919578	0
0.08815329	-4.96710578851306	26.6347179226096	0
0.0887729	-5.15163387367069	26.7657255021762	0
0.08939251	-5.33547334739528	26.8961753312374	0
0.08974477	-5.51859342865999	27.0261862167406	0
0.0901293	-5.70101348023155	27.1558671244192	0
0.09069585	-5.88274471375052	27.2853110201344	0
0.09126241	-6.06376655726725	27.4145812134143	0
0.09163225	-6.24403330404905	27.5437139108878	0
0.09200658	-6.42349792221676	27.6727134993469	0
0.09254205	-6.60213488944976	27.8015502495737	0
0.09307753	-6.77993701257687	27.930124399542	0
0.09348737	-6.95687494456365	28.0582944673462	0
0.09388001	-7.13291307999993	28.1860263248152	0
0.09437279	-7.30802850328015	28.3133300253956	0
0.09486558	-7.48219298341124	28.4402277690557	0
0.09566692	-7.65539260963606	28.5667514517624	0
0.09574705	-7.82759641410371	28.6929113744406	0
0.09587245	-7.9987724229637	28.81870300373	0
0.09649942	-8.16886206313419	28.9441318574977	0
0.09656212	-8.33780271965284	29.0692100263933	0
0.09662481	-8.5055441745424	29.1939439552704	0
0.0969383	-8.67207418700565	29.3183164018576	0
0.09747568	-8.83739216020369	29.442274188096	0
0.09801306	-9.00148385458795	29.5657376241479	0
0.09855044	-9.16431897207896	29.6886477946149	0
0.098834	-9.32588306154573	29.8109906441873	0
0.09916271	-9.48612588756133	29.932759174018	0
0.09961105	-9.6449974268807	30.0538985927265	0
0.10005939	-9.80245331435089	30.1743114835361	0
0.10010422	-9.95848824358136	30.2939746159743	0
0.1002677	-10.11310137383	30.4129130603178	0
0.10054191	-10.2662351611329	30.5311530389368	0
0.10066625	-10.4178507863241	30.6486631082333	0
0.10112641	-10.5679755091832	30.7653888460119	0
0.10151612	-10.716695690127	30.8813021451695	0
0.10161467	-10.8641308458821	30.996469445521	0
0.10177068	-11.0103836650623	31.1110346646995	0
0.10237799	-11.1554651879066	31.2251600202047	0
0.10252165	-11.2994556328295	31.3389583763027	0
